<svg width="135" height="40" viewBox="0 0 135 40" fill="none" xmlns="http://www.w3.org/2000/svg"><g clip-path="url(#clip0_1982_14904)"><rect width="135" height="40" fill="white"/><path d="M127 0.5H8C3.85786 0.5 0.5 3.85786 0.5 8V32C0.5 36.1421 3.85786 39.5 8 39.5H127C131.142 39.5 134.5 36.1421 134.5 32V8C134.5 3.85786 131.142 0.5 127 0.5Z" stroke="#193AE2"/><path d="M68.1342 21.7502C65.7832 21.7502 63.8648 23.539 63.8648 26.0049C63.8648 28.4708 65.7811 30.2576 68.1342 30.2576C70.4872 30.2576 72.4035 28.452 72.4035 26.0049C72.4035 23.5578 70.4872 21.7502 68.1342 21.7502ZM68.1342 28.5816C66.8448 28.5816 65.733 27.5179 65.733 26.0049C65.733 24.4919 66.8448 23.4262 68.1342 23.4262C69.4236 23.4262 70.5332 24.4731 70.5332 26.0049C70.5332 27.5367 69.4215 28.5816 68.1342 28.5816ZM58.8201 21.7502C56.4692 21.7502 54.5508 23.539 54.5508 26.0049C54.5508 28.4708 56.4671 30.2576 58.8201 30.2576C61.1732 30.2576 63.0895 28.452 63.0895 26.0049C63.0895 23.5578 61.1711 21.7502 58.8201 21.7502ZM58.8201 28.5816C57.5329 28.5816 56.4211 27.5179 56.4211 26.0049C56.4211 24.4919 57.5329 23.4262 58.8201 23.4262C60.1074 23.4262 61.2213 24.4731 61.2213 26.0049C61.2213 27.5367 60.1095 28.5816 58.8201 28.5816ZM47.7424 23.0563V24.8597H52.0598C51.9302 25.8754 51.5938 26.6151 51.0776 27.1313C50.4486 27.7603 49.4664 28.452 47.7424 28.452C45.0842 28.452 43.0049 26.31 43.0049 23.6519C43.0049 20.9937 45.0821 18.8517 47.7424 18.8517C49.1759 18.8517 50.2229 19.4138 50.9961 20.139L52.2688 18.8663C51.1884 17.8361 49.7548 17.0461 47.7424 17.0461C44.102 17.0461 41.0405 20.0115 41.0405 23.6519C41.0405 27.2922 44.102 30.2576 47.7424 30.2576C49.7067 30.2576 51.1884 29.6118 52.3503 28.404C53.5414 27.2128 53.9134 25.5368 53.9134 24.1827C53.9134 23.7647 53.8821 23.3781 53.8173 23.0563H47.7444H47.7424ZM93.0503 24.4564C92.6951 23.5056 91.6168 21.7502 89.41 21.7502C87.2032 21.7502 85.3997 23.4742 85.3997 26.0049C85.3997 28.3893 87.2032 30.2576 89.6189 30.2576C91.5687 30.2576 92.6951 29.0664 93.1632 28.3726L91.7129 27.4051C91.2281 28.1135 90.5698 28.5816 89.6169 28.5816C88.6639 28.5816 87.9889 28.1469 87.5543 27.2943L93.2405 24.9412L93.0482 24.4585L93.0503 24.4564ZM87.2513 25.8754C87.2032 24.2307 88.5239 23.3948 89.4748 23.3948C90.2166 23.3948 90.8456 23.7647 91.0546 24.2976L87.2533 25.8774L87.2513 25.8754ZM82.6266 29.9984H84.4949V17.4975H82.6266V29.9984ZM79.5651 22.701H79.5004C79.0824 22.2016 78.2758 21.7502 77.2622 21.7502C75.1349 21.7502 73.1872 23.6184 73.1872 26.0196C73.1872 28.4207 75.1369 30.2555 77.2622 30.2555C78.2778 30.2555 79.0824 29.8041 79.5004 29.2879H79.5651V29.9002C79.5651 31.5281 78.6958 32.3975 77.2936 32.3975C76.1505 32.3975 75.44 31.5762 75.1516 30.8845L73.5237 31.5616C73.9897 32.69 75.231 34.0756 77.2936 34.0756C79.4836 34.0756 81.3372 32.7862 81.3372 29.6453V22.0093H79.5651V22.7031V22.701ZM77.4231 28.5816C76.1338 28.5816 75.0554 27.5033 75.0554 26.0216C75.0554 24.54 76.1338 23.4283 77.4231 23.4283C78.7125 23.4283 79.6947 24.5233 79.6947 26.0216C79.6947 27.52 78.6958 28.5816 77.4231 28.5816ZM101.805 17.4996H97.3343V30.0005H99.1984V25.2652H101.805C103.873 25.2652 105.905 23.7668 105.905 21.3824C105.905 18.998 103.871 17.4996 101.805 17.4996ZM101.853 23.5244H99.1984V19.2383H101.853C103.249 19.2383 104.041 20.3939 104.041 21.3803C104.041 22.3667 103.249 23.5223 101.853 23.5223M113.384 21.7272C112.034 21.7272 110.634 22.3228 110.055 23.6393L111.712 24.331C112.065 23.6393 112.726 23.4136 113.417 23.4136C114.383 23.4136 115.363 23.9925 115.38 25.0206V25.1502C115.041 24.958 114.318 24.6675 113.434 24.6675C111.649 24.6675 109.831 25.6476 109.831 27.4824C109.831 29.1563 111.296 30.2325 112.935 30.2325C114.19 30.2325 114.88 29.6704 115.315 29.01H115.38V29.9755H117.181V25.1816C117.181 22.9622 115.526 21.7251 113.386 21.7251M113.16 28.5753C112.548 28.5753 111.695 28.2702 111.695 27.5137C111.695 26.5483 112.757 26.1805 113.674 26.1805C114.493 26.1805 114.88 26.3581 115.38 26.5984C115.235 27.7561 114.239 28.5774 113.16 28.5774M123.743 21.9989L121.603 27.4197H121.538L119.319 21.9989H117.308L120.637 29.5742L118.74 33.7872H120.685L125.816 21.9989H123.741H123.743ZM106.937 29.9964H108.803V17.4954H106.937V29.9964Z" fill="#193AE2"/><path fill-rule="evenodd" clip-rule="evenodd" d="M10.6362 30.8528L20.7133 20.1586L25.5346 25.4074L14.0826 32.015L14.0481 32.0365C13.6952 32.2417 13.2868 32.3595 12.8481 32.3595C11.8415 32.3595 10.981 31.7348 10.6362 30.8528Z" fill="#193AE2"/><path fill-rule="evenodd" clip-rule="evenodd" d="M31.231 17.9285L31.4648 17.5389L31.2463 17.9385C31.9873 18.3436 32.4845 19.1197 32.4845 20.0242C32.4845 20.9274 31.9801 21.7136 31.2312 22.1192L26.4067 24.9038L21.2036 19.7026L26.3658 15.1086L31.2238 17.9242L31.231 17.9285Z" fill="#193AE2"/><path fill-rule="evenodd" clip-rule="evenodd" d="M10.4722 10.3461V29.6146L20.3646 19.7222L10.4722 10.3461Z" fill="#193AE2"/><path fill-rule="evenodd" clip-rule="evenodd" d="M10.6411 9.13964L20.7964 19.2929L25.4924 14.5987L14.0783 7.98087C13.7189 7.76486 13.2997 7.64062 12.85 7.64062C11.8504 7.64062 10.9909 8.26109 10.6411 9.13964Z" fill="#193AE2"/><path d="M42.2484 12.8729C41.8576 12.6054 41.588 12.2125 41.4438 11.6901L42.3236 11.3432C42.3988 11.6671 42.5451 11.9241 42.7625 12.108C42.9798 12.294 43.2368 12.386 43.5315 12.386C43.8512 12.386 44.1229 12.2857 44.3486 12.0851C44.5743 11.8844 44.6871 11.6378 44.6871 11.3411C44.6871 11.1488 44.6328 10.9754 44.522 10.8145C44.4113 10.6557 44.2608 10.5282 44.0707 10.4362C43.8784 10.3443 43.6715 10.2962 43.4437 10.2962H42.9296V9.46032H43.3915C43.7049 9.46032 43.9662 9.37464 44.1751 9.20328C44.3841 9.03193 44.4886 8.80205 44.4886 8.51158C44.4886 8.25663 44.3925 8.04556 44.1981 7.87629C44.0038 7.70911 43.7614 7.62343 43.4709 7.62343C43.2097 7.62343 42.9902 7.70075 42.8105 7.85748C42.6308 8.01421 42.5054 8.2002 42.4365 8.41336L41.5922 8.06646C41.7134 7.72374 41.9349 7.42072 42.2567 7.15741C42.5786 6.89411 42.9861 6.76245 43.4792 6.76245C43.8554 6.76245 44.1919 6.83559 44.4844 6.98396C44.777 7.13234 45.0069 7.33504 45.172 7.59208C45.337 7.85121 45.4206 8.14169 45.4206 8.4656C45.4206 9.06954 45.1573 9.51466 44.6286 9.80513V9.85738C44.9254 9.99112 45.1657 10.1855 45.3517 10.4404C45.5377 10.6954 45.6296 11.0067 45.6296 11.3724C45.6296 11.7382 45.5377 12.0474 45.3558 12.3379C45.1719 12.6284 44.9212 12.8562 44.6035 13.0213C44.2859 13.1864 43.9285 13.2699 43.5336 13.2699C43.0697 13.2699 42.6413 13.1362 42.2505 12.8708L42.2484 12.8729Z" fill="#193AE2"/><path d="M48.5263 6.90454H49.613L51.9702 13.1341H50.917L50.3423 11.5333H47.8012L47.2265 13.1341H46.1733L48.5221 6.90454H48.5263ZM50.0309 10.6452L49.3351 8.73517L49.101 8.02256H49.0488L48.8147 8.73517L48.1188 10.6452H50.033H50.0309Z" fill="#193AE2"/><path d="M52.9106 6.90454H55.2428C55.573 6.90454 55.8802 6.97768 56.1644 7.12188C56.4486 7.26607 56.6743 7.4646 56.8394 7.71746C57.0044 7.97032 57.088 8.25034 57.088 8.55754C57.088 8.86473 57.0107 9.13222 56.8582 9.36209C56.7035 9.59197 56.5008 9.7675 56.2459 9.88871V9.9326C56.5698 10.0434 56.8289 10.2252 57.0212 10.4801C57.2134 10.7351 57.3075 11.036 57.3075 11.385C57.3075 11.734 57.2197 12.0307 57.0421 12.294C56.8644 12.5573 56.6283 12.7642 56.3295 12.9126C56.0306 13.061 55.7046 13.1341 55.3515 13.1341H52.9148V6.90454H52.9106ZM55.1989 9.523C55.4894 9.523 55.7213 9.43523 55.8948 9.2576C56.0682 9.07998 56.156 8.87727 56.156 8.64531C56.156 8.41334 56.0703 8.21273 55.899 8.04137C55.7276 7.87001 55.5061 7.78433 55.2344 7.78433H53.8677V9.52509H55.1989V9.523ZM55.3473 12.246C55.6482 12.246 55.8906 12.154 56.0745 11.9722C56.2584 11.7904 56.3483 11.571 56.3483 11.316C56.3483 11.0611 56.2542 10.8395 56.0662 10.6557C55.8781 10.4697 55.6273 10.3777 55.3138 10.3777H53.8698V12.248H55.3494L55.3473 12.246Z" fill="#193AE2"/><path d="M60.1826 6.90454H61.2693L63.6265 13.1341H62.5733L61.9986 11.5333H59.4575L58.8828 13.1341H57.8296L60.1785 6.90454H60.1826ZM61.6873 10.6452L60.9914 8.73517L60.7573 8.02256H60.7051L60.471 8.73517L59.7751 10.6452H61.6893H61.6873Z" fill="#193AE2"/><path d="M64.5693 6.90454H65.5264V9.49793H68.4417V6.90454H69.3904V13.1341H68.4417V10.4028H65.5264V13.1341H64.5693V6.90454Z" fill="#193AE2"/><path d="M72.1114 7.8094H70.3623V6.90454H74.8072V7.8094H73.0664V13.1341H72.1093V7.8094H72.1114Z" fill="#193AE2"/><path d="M77.0346 6.90454H78.1213L80.4786 13.1341H79.4253L78.8506 11.5333H76.3095L75.7348 13.1341H74.6816L77.0305 6.90454H77.0346ZM78.5393 10.6452L77.8434 8.73517L77.6093 8.02256H77.5571L77.323 8.73517L76.6271 10.6452H78.5414H78.5393Z" fill="#193AE2"/><path d="M81.0806 13.0819L83.5779 10.081L81.1935 6.95678V6.90454H82.3512L84.5517 9.85319H84.6039V6.90454H85.5527V9.85319H85.6049L87.8054 6.90454H88.9632V6.95678L86.5788 10.081L89.076 13.0819V13.1341H87.8493L85.6049 10.3317H85.5527V13.1341H84.6039V10.3317H84.5517L82.2989 13.1341H81.0806V13.0819Z" fill="#193AE2"/><path d="M89.9723 6.90454H90.9211V10.3505L90.8688 11.5522H90.9211L93.713 6.90663H94.7996V13.1362H93.8509V9.6045L93.9031 8.40289H93.8509L91.0151 13.1362H89.9702V6.90663L89.9723 6.90454Z" fill="#193AE2"/><path d="M97.5328 7.8094H95.7837V6.90454H100.229V7.8094H98.4878V13.1341H97.5307V7.8094H97.5328Z" fill="#193AE2"/><path d="M101.221 6.90454H102.17V10.3505L102.118 11.5522H102.17L104.962 6.90663H106.049V13.1362H105.1V9.6045L105.152 8.40289H105.1L102.264 13.1362H101.219V6.90663L101.221 6.90454Z" fill="#193AE2"/><path d="M109.95 12.8729C109.56 12.6054 109.29 12.2125 109.146 11.6901L110.024 11.3432C110.099 11.6671 110.245 11.9241 110.462 12.108C110.68 12.294 110.937 12.386 111.231 12.386C111.551 12.386 111.823 12.2857 112.048 12.0851C112.274 11.8844 112.387 11.6378 112.387 11.3411C112.387 11.1488 112.333 10.9754 112.222 10.8145C112.111 10.6557 111.961 10.5282 111.771 10.4362C111.578 10.3443 111.369 10.2962 111.144 10.2962H110.63V9.46032H111.091C111.405 9.46032 111.666 9.37464 111.875 9.20328C112.084 9.03193 112.188 8.80205 112.188 8.51158C112.188 8.25663 112.092 8.04556 111.898 7.87629C111.704 7.70911 111.461 7.62343 111.171 7.62343C110.91 7.62343 110.69 7.70075 110.51 7.85748C110.331 8.01421 110.205 8.2002 110.136 8.41336L109.292 8.06646C109.413 7.72374 109.635 7.42072 109.959 7.15741C110.281 6.89411 110.688 6.76245 111.181 6.76245C111.557 6.76245 111.894 6.83559 112.186 6.98396C112.479 7.13234 112.709 7.33504 112.874 7.59208C113.039 7.85121 113.123 8.14169 113.123 8.4656C113.123 9.06954 112.859 9.51466 112.331 9.80513V9.85738C112.627 9.99112 112.868 10.1855 113.054 10.4404C113.24 10.6954 113.332 11.0067 113.332 11.3724C113.332 11.7382 113.24 12.0474 113.058 12.3379C112.876 12.6284 112.623 12.8562 112.306 13.0213C111.986 13.1864 111.631 13.2699 111.236 13.2699C110.772 13.2699 110.343 13.1362 109.952 12.8708L109.95 12.8729Z" fill="#193AE2"/></g><defs><clipPath id="clip0_1982_14904"><rect width="135" height="40" fill="white"/></clipPath></defs></svg>