<svg width="135" height="40" viewBox="0 0 135 40" fill="none" xmlns="http://www.w3.org/2000/svg"><g clip-path="url(#clip0_1982_14923)"><rect width="135" height="40" fill="white"/><path d="M127 0.5H8C3.85786 0.5 0.5 3.85786 0.5 8V32C0.5 36.1421 3.85786 39.5 8 39.5H127C131.142 39.5 134.5 36.1421 134.5 32V8C134.5 3.85786 131.142 0.5 127 0.5Z" stroke="#193AE2"/><path d="M27.2973 20.3006C27.3081 19.4659 27.5298 18.6475 27.9418 17.9216C28.3538 17.1956 28.9428 16.5857 29.6539 16.1485C29.2021 15.5034 28.6062 14.9724 27.9134 14.5979C27.2205 14.2233 26.4499 14.0155 25.6627 13.9908C23.9835 13.8146 22.3555 14.9957 21.4998 14.9957C20.6275 14.9957 19.31 14.0083 17.8913 14.0375C16.9736 14.0672 16.0793 14.334 15.2954 14.8121C14.5115 15.2901 13.8649 15.9631 13.4184 16.7654C11.4844 20.1138 12.927 25.0349 14.7796 27.7415C15.7065 29.0668 16.7898 30.5473 18.2072 30.4948C19.5943 30.4372 20.1123 29.6103 21.7866 29.6103C23.4454 29.6103 23.9314 30.4948 25.3776 30.4614C26.866 30.4372 27.8038 29.1302 28.6981 27.7923C29.3641 26.8479 29.8766 25.8042 30.2166 24.6997C29.3518 24.334 28.6139 23.7218 28.0948 22.9395C27.5757 22.1572 27.2983 21.2394 27.2973 20.3006Z" fill="#193AE2"/><path d="M24.5659 12.2108C25.3774 11.2366 25.7772 9.98445 25.6804 8.72021C24.4406 8.85044 23.2953 9.44299 22.4728 10.3798C22.0707 10.8375 21.7627 11.3699 21.5665 11.9467C21.3702 12.5235 21.2896 13.1333 21.3291 13.7412C21.9493 13.7476 22.5628 13.6132 23.1234 13.3481C23.6841 13.083 24.1773 12.6942 24.5659 12.2108Z" fill="#193AE2"/><path d="M49.3027 27.1397H44.5693L43.4326 30.4961H41.4277L45.9111 18.0781H47.9941L52.4775 30.4961H50.4384L49.3027 27.1397ZM45.0595 25.5908H48.8115L46.9619 20.1436H46.9102L45.0595 25.5908Z" fill="#193AE2"/><path d="M62.1601 25.9698C62.1601 28.7833 60.6543 30.5909 58.3818 30.5909C57.8062 30.621 57.2337 30.4884 56.7299 30.2083C56.2261 29.9281 55.8114 29.5118 55.5332 29.0069H55.4902V33.4913H53.6318V21.4425H55.4307V22.9483H55.4648C55.7558 22.4459 56.1775 22.0317 56.6851 21.7498C57.1928 21.468 57.7673 21.329 58.3476 21.3477C60.6455 21.3477 62.1601 23.1641 62.1601 25.9698ZM60.25 25.9698C60.25 24.1368 59.3027 22.9317 57.8574 22.9317C56.4375 22.9317 55.4824 24.1622 55.4824 25.9698C55.4824 27.794 56.4375 29.0157 57.8574 29.0157C59.3027 29.0157 60.25 27.8194 60.25 25.9698Z" fill="#193AE2"/><path d="M72.1245 25.9698C72.1245 28.7833 70.6187 30.5909 68.3462 30.5909C67.7706 30.621 67.1981 30.4884 66.6943 30.2083C66.1905 29.9281 65.7757 29.5118 65.4976 29.0069H65.4546V33.4913H63.5962V21.4425H65.395V22.9483H65.4292C65.7201 22.4459 66.1419 22.0317 66.6495 21.7498C67.1571 21.468 67.7317 21.329 68.312 21.3477C70.6099 21.3477 72.1245 23.1641 72.1245 25.9698ZM70.2144 25.9698C70.2144 24.1368 69.2671 22.9317 67.8218 22.9317C66.4019 22.9317 65.4468 24.1622 65.4468 25.9698C65.4468 27.794 66.4019 29.0157 67.8218 29.0157C69.2671 29.0157 70.2144 27.8194 70.2144 25.9698Z" fill="#193AE2"/><path d="M78.7105 27.0362C78.8482 28.2676 80.0445 29.0762 81.6792 29.0762C83.2457 29.0762 84.3726 28.2676 84.3726 27.1572C84.3726 26.1934 83.6929 25.6162 82.0835 25.2207L80.4742 24.833C78.1939 24.2822 77.1353 23.2158 77.1353 21.4854C77.1353 19.3428 79.0025 17.8711 81.6539 17.8711C84.2779 17.8711 86.0767 19.3428 86.1373 21.4854H84.2613C84.149 20.2461 83.1245 19.4981 81.6275 19.4981C80.1304 19.4981 79.106 20.2549 79.106 21.3565C79.106 22.2344 79.7603 22.751 81.3609 23.1465L82.729 23.4824C85.2769 24.0849 86.3355 25.1084 86.3355 26.9248C86.3355 29.248 84.4849 30.7031 81.5415 30.7031C78.7876 30.7031 76.9282 29.2822 76.8081 27.0361L78.7105 27.0362Z" fill="#193AE2"/><path d="M90.3462 19.2998V21.4424H92.0679V22.9141H90.3462V27.9053C90.3462 28.6807 90.691 29.042 91.4478 29.042C91.6522 29.0384 91.8562 29.0241 92.0591 28.999V30.4619C91.7188 30.5255 91.373 30.5543 91.0269 30.5478C89.1939 30.5478 88.479 29.8593 88.479 28.1035V22.9141H87.1626V21.4424H88.479V19.2998H90.3462Z" fill="#193AE2"/><path d="M93.0654 25.9697C93.0654 23.1211 94.7431 21.3311 97.3594 21.3311C99.9844 21.3311 101.654 23.1211 101.654 25.9697C101.654 28.8262 99.9932 30.6084 97.3594 30.6084C94.7265 30.6084 93.0654 28.8262 93.0654 25.9697ZM99.7607 25.9697C99.7607 24.0156 98.8652 22.8623 97.3594 22.8623C95.8535 22.8623 94.959 24.0244 94.959 25.9697C94.959 27.9316 95.8535 29.0762 97.3594 29.0762C98.8652 29.0762 99.7607 27.9316 99.7607 25.9697Z" fill="#193AE2"/><path d="M103.186 21.4424H104.959V22.9834H105.002C105.122 22.5021 105.404 22.0768 105.8 21.7789C106.197 21.481 106.684 21.3287 107.179 21.3476C107.394 21.3469 107.607 21.3702 107.816 21.417V23.1553C107.546 23.0726 107.264 23.0347 106.981 23.043C106.711 23.032 106.442 23.0796 106.192 23.1825C105.942 23.2854 105.718 23.4411 105.534 23.639C105.35 23.8369 105.211 24.0723 105.126 24.3289C105.042 24.5856 105.014 24.8575 105.045 25.126V30.4961H103.186V21.4424Z" fill="#193AE2"/><path d="M116.385 27.8369C116.135 29.4805 114.534 30.6084 112.486 30.6084C109.852 30.6084 108.218 28.8437 108.218 26.0127C108.218 23.1729 109.861 21.3311 112.408 21.3311C114.913 21.3311 116.488 23.0518 116.488 25.7969V26.4336H110.094V26.5459C110.064 26.8791 110.106 27.2148 110.216 27.5306C110.326 27.8464 110.502 28.1352 110.733 28.3778C110.963 28.6203 111.242 28.8111 111.552 28.9374C111.862 29.0637 112.195 29.1226 112.529 29.1103C112.968 29.1515 113.409 29.0498 113.786 28.8203C114.162 28.5909 114.455 28.246 114.62 27.8369H116.385ZM110.102 25.1348H114.629C114.645 24.8352 114.6 24.5354 114.495 24.2541C114.391 23.9729 114.229 23.7164 114.02 23.5006C113.812 23.2849 113.561 23.1145 113.284 23.0003C113.006 22.8861 112.708 22.8305 112.408 22.8369C112.105 22.8351 111.805 22.8933 111.525 23.008C111.245 23.1227 110.991 23.2918 110.776 23.5054C110.562 23.7191 110.392 23.973 110.276 24.2527C110.161 24.5323 110.102 24.8321 110.102 25.1348Z" fill="#193AE2"/><path d="M44.1719 11.4961H44.9531C45.3464 11.4961 45.651 11.5794 45.8672 11.7461C46.0833 11.9102 46.1914 12.1354 46.1914 12.4219V12.4297C46.1914 12.6146 46.1406 12.7786 46.0391 12.9219C45.9375 13.0625 45.7956 13.1719 45.6133 13.25C45.4336 13.3281 45.2214 13.3672 44.9766 13.3672C44.7396 13.3672 44.5299 13.3333 44.3477 13.2656C44.1654 13.1953 44.0195 13.0964 43.9102 12.9688C43.8008 12.8385 43.737 12.6849 43.7188 12.5078L43.7148 12.4844H42.8594V12.5234C42.8828 12.8464 42.9857 13.1289 43.168 13.3711C43.3503 13.6133 43.5964 13.8021 43.9062 13.9375C44.2161 14.0703 44.5729 14.1367 44.9766 14.1367C45.375 14.1367 45.7331 14.0638 46.0508 13.918C46.3685 13.7721 46.6198 13.5742 46.8047 13.3242C46.9922 13.0742 47.0859 12.7904 47.0859 12.4727V12.4648C47.0859 12.069 46.9674 11.7513 46.7305 11.5117C46.4961 11.2721 46.1966 11.1341 45.832 11.0977V11.0312C46.1445 10.9583 46.3984 10.8047 46.5938 10.5703C46.7891 10.3333 46.8867 10.0599 46.8867 9.75V9.74219C46.8867 9.44271 46.806 9.17969 46.6445 8.95312C46.4831 8.72656 46.2604 8.54948 45.9766 8.42188C45.6953 8.29167 45.3698 8.22656 45 8.22656C44.6146 8.22656 44.2773 8.29036 43.9883 8.41797C43.7018 8.54297 43.474 8.72396 43.3047 8.96094C43.1354 9.19531 43.0378 9.47396 43.0117 9.79688L43.0039 9.85938H43.8477V9.83203C43.8685 9.65495 43.9258 9.50521 44.0195 9.38281C44.1159 9.25781 44.2448 9.16276 44.4062 9.09766C44.5677 9.02995 44.7552 8.99609 44.9688 8.99609C45.1901 8.99609 45.3789 9.03125 45.5352 9.10156C45.6914 9.16927 45.8112 9.26562 45.8945 9.39062C45.9779 9.51302 46.0195 9.66016 46.0195 9.83203V9.83984C46.0195 10.1107 45.9206 10.332 45.7227 10.5039C45.5247 10.6732 45.2604 10.7578 44.9297 10.7578H44.1719V11.4961Z" fill="#193AE2"/><path d="M47.7617 14H48.6836L50.2383 9.35156H50.5039V8.36328H49.7969L47.7617 14ZM48.7422 12.4766H51.8008L51.5547 11.7734H48.9883L48.7422 12.4766ZM51.8555 14H52.7773L50.7461 8.36328H50.3047V9.35156L51.8555 14Z" fill="#193AE2"/><path d="M54.2734 14H56.1562C56.5573 14 56.901 13.9362 57.1875 13.8086C57.474 13.681 57.694 13.4987 57.8477 13.2617C58.0039 13.0221 58.082 12.7383 58.082 12.4102V12.4023C58.082 12.1576 58.0286 11.9388 57.9219 11.7461C57.8151 11.5508 57.6667 11.3919 57.4766 11.2695C57.2865 11.1471 57.0638 11.0729 56.8086 11.0469V10.9805C56.9961 10.9492 57.1641 10.875 57.3125 10.7578C57.4609 10.6406 57.5794 10.4974 57.668 10.3281C57.7565 10.1562 57.8008 9.97135 57.8008 9.77344V9.76562C57.8008 9.47917 57.7331 9.23177 57.5977 9.02344C57.4622 8.8125 57.2669 8.64974 57.0117 8.53516C56.7591 8.42057 56.457 8.36328 56.1055 8.36328H54.2734V9.07812H55.8984C56.224 9.07812 56.4766 9.15234 56.6562 9.30078C56.8359 9.44661 56.9258 9.65234 56.9258 9.91797V9.92578C56.9258 10.1992 56.8268 10.4076 56.6289 10.5508C56.431 10.6914 56.138 10.7617 55.75 10.7617H54.2734V11.4297H55.9258C56.2018 11.4297 56.4323 11.4648 56.6172 11.5352C56.8047 11.6029 56.9453 11.7044 57.0391 11.8398C57.1328 11.9753 57.1797 12.1445 57.1797 12.3477V12.3555C57.1797 12.6576 57.0781 12.888 56.875 13.0469C56.6719 13.2057 56.3724 13.2852 55.9766 13.2852H54.2734V14ZM53.8359 14H54.7109V8.36328H53.8359V14Z" fill="#193AE2"/><path d="M58.7773 14H59.6992L61.2539 9.35156H61.5195V8.36328H60.8125L58.7773 14ZM59.7578 12.4766H62.8164L62.5703 11.7734H60.0039L59.7578 12.4766ZM62.8711 14H63.793L61.7617 8.36328H61.3203V9.35156L62.8711 14Z" fill="#193AE2"/><path d="M64.8516 14H65.7266V11.5039H68.6172V14H69.4961V8.36328H68.6172V10.7461H65.7266V8.36328H64.8516V14Z" fill="#193AE2"/><path d="M72.4219 14H73.2969V9.12109H75.0703V8.36328H70.6484V9.12109H72.4219V14Z" fill="#193AE2"/><path d="M75.207 14H76.1289L77.6836 9.35156H77.9492V8.36328H77.2422L75.207 14ZM76.1875 12.4766H79.2461L79 11.7734H76.4336L76.1875 12.4766ZM79.3008 14H80.2227L78.1914 8.36328H77.75V9.35156L79.3008 14Z" fill="#193AE2"/><path d="M85.082 10.7578V8.36328H84.2188V10.7578H84.0117L81.9922 8.36328H80.9648L83.3516 11.1211V11.0469L80.7852 14H81.8633L84.0078 11.4961H84.2188V14H85.082V11.4961H85.2891L87.4375 14H88.5273L85.9492 11.0312V11.1016L88.3242 8.36328H87.3086L85.2891 10.7578H85.082Z" fill="#193AE2"/><path d="M89.5234 14H90.3711L93.4531 9.51172L92.8594 9.82812H93.3047V14H94.1758V8.36328H93.3281L90.25 12.8633L90.8359 12.5508H90.3945V8.36328H89.5234V14Z" fill="#193AE2"/><path d="M97.1016 14H97.9766V9.12109H99.75V8.36328H95.3281V9.12109H97.1016V14Z" fill="#193AE2"/><path d="M100.898 14H101.746L104.828 9.51172L104.234 9.82812H104.68V14H105.551V8.36328H104.703L101.625 12.8633L102.211 12.5508H101.77V8.36328H100.898V14Z" fill="#193AE2"/><path d="M110.195 11.4961H110.977C111.37 11.4961 111.674 11.5794 111.891 11.7461C112.107 11.9102 112.215 12.1354 112.215 12.4219V12.4297C112.215 12.6146 112.164 12.7786 112.062 12.9219C111.961 13.0625 111.819 13.1719 111.637 13.25C111.457 13.3281 111.245 13.3672 111 13.3672C110.763 13.3672 110.553 13.3333 110.371 13.2656C110.189 13.1953 110.043 13.0964 109.934 12.9688C109.824 12.8385 109.76 12.6849 109.742 12.5078L109.738 12.4844H108.883V12.5234C108.906 12.8464 109.009 13.1289 109.191 13.3711C109.374 13.6133 109.62 13.8021 109.93 13.9375C110.24 14.0703 110.596 14.1367 111 14.1367C111.398 14.1367 111.757 14.0638 112.074 13.918C112.392 13.7721 112.643 13.5742 112.828 13.3242C113.016 13.0742 113.109 12.7904 113.109 12.4727V12.4648C113.109 12.069 112.991 11.7513 112.754 11.5117C112.52 11.2721 112.22 11.1341 111.855 11.0977V11.0312C112.168 10.9583 112.422 10.8047 112.617 10.5703C112.812 10.3333 112.91 10.0599 112.91 9.75V9.74219C112.91 9.44271 112.829 9.17969 112.668 8.95312C112.507 8.72656 112.284 8.54948 112 8.42188C111.719 8.29167 111.393 8.22656 111.023 8.22656C110.638 8.22656 110.301 8.29036 110.012 8.41797C109.725 8.54297 109.497 8.72396 109.328 8.96094C109.159 9.19531 109.061 9.47396 109.035 9.79688L109.027 9.85938H109.871V9.83203C109.892 9.65495 109.949 9.50521 110.043 9.38281C110.139 9.25781 110.268 9.16276 110.43 9.09766C110.591 9.02995 110.779 8.99609 110.992 8.99609C111.214 8.99609 111.402 9.03125 111.559 9.10156C111.715 9.16927 111.835 9.26562 111.918 9.39062C112.001 9.51302 112.043 9.66016 112.043 9.83203V9.83984C112.043 10.1107 111.944 10.332 111.746 10.5039C111.548 10.6732 111.284 10.7578 110.953 10.7578H110.195V11.4961Z" fill="#193AE2"/></g><defs><clipPath id="clip0_1982_14923"><rect width="135" height="40" fill="white"/></clipPath></defs></svg>